<?xml version="1.0" standalone="no"?>
<!DOCTYPE svg PUBLIC "-//W3C//DTD SVG 20010904//EN"
 "http://www.w3.org/TR/2001/REC-SVG-20010904/DTD/svg10.dtd">
<svg version="1.0" xmlns="http://www.w3.org/2000/svg"
 width="500.000000pt" height="500.000000pt" viewBox="0 0 500.000000 500.000000"
 preserveAspectRatio="xMidYMid meet">

<g transform="translate(0.000000,500.000000) scale(0.100000,-0.100000)"
fill="#000000" stroke="none">
<path d="M0 2500 l0 -2500 2500 0 2500 0 0 2500 0 2500 -2500 0 -2500 0 0
-2500z m2200 1715 c15 -8 37 -26 48 -40 25 -31 33 -31 61 -1 46 49 135 37 169
-24 20 -35 22 -36 64 -10 18 11 50 20 70 20 73 0 113 -36 126 -113 6 -36 11
-42 34 -45 16 -2 39 6 56 18 50 37 102 -1 81 -58 -14 -37 -11 -46 22 -65 30
-16 31 -19 27 -75 l-3 -57 49 -6 c37 -4 55 -12 72 -33 28 -32 31 -81 8 -114
-9 -13 -14 -32 -11 -44 9 -31 -34 -68 -78 -68 -38 0 -85 35 -85 65 0 21 -7 19
-42 -10 -17 -14 -42 -25 -59 -25 -33 0 -89 25 -89 40 0 6 -4 10 -10 10 -5 0
-10 -7 -10 -16 0 -8 -14 -29 -30 -46 -28 -28 -35 -30 -85 -26 -30 3 -55 1 -55
-3 0 -14 -57 -39 -89 -39 -65 0 -104 39 -117 118 -6 38 -4 44 29 77 29 29 42
35 77 35 23 0 49 -4 59 -9 14 -8 20 -4 30 25 21 57 101 60 124 4 10 -23 16
-27 30 -18 10 5 29 7 43 4 26 -7 33 -41 14 -77 -12 -21 -1 -26 18 -7 19 19 14
73 -7 92 -11 10 -31 16 -48 14 -21 -2 -34 4 -51 25 -35 40 -91 38 -127 -5 -24
-28 -32 -31 -73 -30 -89 5 -148 -58 -139 -147 3 -25 6 -55 8 -65 5 -27 -43
-46 -71 -28 -16 10 -19 8 -25 -17 -15 -69 -97 -89 -144 -35 -14 17 -31 39 -38
50 -11 18 -12 17 -12 -8 -1 -35 -28 -61 -57 -55 -19 3 -23 -1 -26 -27 -4 -43
-43 -64 -83 -45 -40 20 -69 80 -60 126 6 34 45 85 73 94 10 3 10 11 0 37 -17
43 4 83 50 96 17 5 32 13 32 18 0 5 11 20 25 33 37 38 95 35 130 -7 21 -24 25
-38 21 -61 -5 -25 -4 -28 9 -17 24 20 17 56 -19 94 -26 28 -41 36 -69 36 -30
0 -39 5 -52 30 -37 72 5 150 82 150 22 0 44 -5 49 -10 7 -7 17 0 32 20 28 38
72 41 106 7 17 -17 27 -20 38 -13 20 12 47 1 54 -21 3 -10 10 -26 15 -35 15
-29 10 -74 -10 -92 -13 -12 -36 -18 -68 -18 l-48 0 28 -15 c56 -29 127 15 127
78 0 48 -35 116 -65 123 -14 4 -30 4 -36 1 -5 -4 -21 3 -35 14 -15 12 -35 21
-46 21 -25 0 -78 -28 -78 -40 0 -6 -16 -8 -39 -4 -99 16 -172 -82 -126 -169
14 -27 13 -30 -18 -68 -35 -42 -48 -47 -67 -24 -15 19 -54 19 -72 2 -7 -8 -29
-14 -48 -15 -34 -1 -70 -29 -70 -56 0 -8 -12 -11 -34 -8 -47 5 -74 -12 -96
-61 -17 -39 -19 -40 -19 -14 -1 15 -7 30 -15 33 -24 9 -27 34 -6 51 11 10 20
27 20 39 0 45 46 63 103 39 13 -5 17 -2 17 14 0 12 11 33 25 46 19 16 24 30
20 47 -9 37 16 71 60 84 26 7 41 17 44 30 6 34 23 45 65 42 40 -3 40 -3 47 36
4 27 16 47 38 65 17 14 31 33 31 41 0 28 37 76 71 93 42 21 91 22 129 2z
m-327 -521 c3 -3 -4 -21 -15 -40 -15 -25 -18 -44 -14 -68 5 -28 3 -36 -17 -49
-13 -8 -31 -34 -42 -57 -16 -35 -17 -48 -7 -83 10 -36 9 -45 -7 -67 -26 -36
-67 -38 -102 -4 -16 15 -29 23 -29 16 0 -6 -11 -19 -25 -28 -23 -15 -27 -15
-50 0 -65 43 -76 106 -32 173 24 35 37 42 37 19 0 -15 37 -46 54 -46 5 0 0 10
-11 23 -43 47 -36 105 17 127 23 9 34 8 59 -4 l31 -17 0 29 c0 40 31 66 68 57
22 -4 31 -2 35 9 6 16 38 22 50 10z m899 -185 c32 -10 45 -9 80 4 39 16 42 16
55 -2 19 -28 77 -45 112 -33 l28 10 7 -127 c7 -140 -6 -428 -29 -638 -26 -247
-24 -236 -59 -261 -111 -82 -158 -113 -163 -108 -3 3 -15 100 -26 216 -12 115
-25 210 -29 210 -12 0 -10 -48 12 -254 11 -104 19 -191 17 -192 -4 -5 -202
-23 -377 -34 -132 -9 -146 -8 -158 7 -14 19 -36 93 -29 99 2 2 26 -5 52 -17
87 -38 175 -10 232 76 33 49 40 114 24 223 -13 86 -4 153 23 180 14 14 16 13
25 -9 9 -23 10 -23 10 8 1 37 -28 63 -69 62 l-25 0 24 -10 c29 -12 23 -19 -44
-53 -56 -28 -246 -86 -280 -86 -19 0 -24 7 -31 43 -4 23 -7 78 -6 122 0 44 -6
103 -13 130 -8 28 -17 101 -21 163 l-7 112 27 0 c15 0 36 5 47 10 15 9 19 7
19 -7 0 -14 5 -12 28 10 20 19 31 24 42 17 8 -5 27 -10 43 -10 25 0 27 3 27
41 0 35 2 40 18 34 9 -5 32 -10 50 -13 18 -2 32 -10 32 -18 0 -29 94 -12 135
25 11 10 30 21 43 24 27 6 24 16 58 -213 14 -96 27 -177 30 -179 15 -16 12 30
-14 206 l-30 198 26 28 c14 15 31 25 37 23 5 -3 27 -10 47 -17z m571 -121 c21
-11 21 -11 2 -18 -17 -6 -20 -16 -20 -68 -1 -52 -6 -68 -31 -104 -17 -24 -34
-50 -37 -58 -5 -13 -6 -13 -6 1 -1 8 13 37 30 63 32 48 32 46 12 139 -3 15 0
34 7 42 15 18 16 18 43 3z m-1656 -144 c12 -21 40 -88 62 -149 74 -210 121
-414 146 -637 19 -171 19 -198 0 -198 -8 0 -15 7 -15 14 0 8 -7 68 -15 133
-33 248 -109 524 -208 753 -41 95 -44 106 -29 118 23 17 34 11 59 -34z m243
32 c9 -12 5 -21 -22 -45 -29 -26 -34 -27 -40 -13 -4 9 -7 29 -7 45 -1 23 3 27
28 27 16 0 34 -7 41 -14z m1520 -71 c27 -14 60 -51 60 -66 0 -4 -14 6 -31 22
-30 28 -88 47 -108 34 -6 -3 -11 1 -11 9 0 21 51 21 90 1z m-1480 -33 c-1 -15
-14 -42 -30 -62 -17 -19 -30 -45 -30 -57 0 -50 -18 -19 -25 42 -8 74 -4 82 39
100 38 16 46 12 46 -23z m114 -60 c52 -48 63 -141 21 -190 -52 -62 -127 -46
-166 36 -25 50 -20 95 13 137 37 47 90 54 132 17z m1366 -20 c21 -14 28 -22
18 -22 -9 0 -33 9 -52 21 -22 13 -43 18 -56 14 -19 -6 -29 13 -14 28 8 7 55
-12 104 -41z m-74 -48 c13 -9 39 -20 57 -24 31 -8 31 -8 4 -9 -34 -1 -97 24
-97 38 0 15 6 14 36 -5z m-1986 -84 c22 -38 40 -74 40 -82 -1 -7 -11 7 -22 31
-12 24 -38 61 -58 82 -20 22 -35 41 -32 43 12 12 36 -13 72 -74z m1927 38 c16
-20 15 -19 -14 2 -19 14 -40 21 -52 17 -20 -5 -28 3 -15 16 10 9 61 -13 81
-35z m-2041 -40 c64 -69 116 -139 109 -146 -4 -4 -17 7 -29 23 -38 54 -125
137 -135 130 -12 -7 -15 8 -4 18 13 14 30 6 59 -25z m1999 -36 c-2 -2 -16 3
-31 11 -26 14 -29 13 -47 -9 -10 -14 -33 -32 -50 -40 -29 -15 -27 -12 16 31
26 26 47 51 47 56 0 6 16 -3 35 -18 19 -15 32 -29 30 -31z m-1718 -1 c13 -19
23 -41 23 -50 0 -9 -12 4 -26 27 -23 38 -30 43 -55 40 -23 -4 -26 -2 -17 9 18
22 50 11 75 -26z m420 -47 c15 -10 29 -19 31 -20 2 -1 7 -37 12 -80 4 -44 17
-158 29 -254 30 -259 29 -245 5 -248 -33 -5 -54 80 -109 432 -19 126 -35 234
-35 240 0 6 9 -3 20 -21 10 -18 32 -40 47 -49z m-457 31 c15 -18 5 -69 -17
-87 -15 -12 -15 -11 -4 10 14 26 7 72 -10 72 -6 0 -7 5 -4 10 9 14 21 12 35
-5z m920 -137 c0 -36 -1 -37 -67 -62 -73 -27 -188 -51 -202 -41 -12 7 -35 75
-28 81 3 3 38 12 79 21 40 8 102 24 138 36 72 25 80 21 80 -35z m-812 4 c-3
-14 -6 -14 -16 6 -7 12 -10 27 -6 33 9 15 27 -16 22 -39z m-8 -40 c0 -4 -9
-13 -21 -20 -19 -12 -19 -11 -9 8 10 19 30 28 30 12z m70 -57 c29 -19 63 -38
76 -41 13 -3 24 -10 24 -15 0 -5 -17 -2 -37 7 -70 30 -94 36 -113 31 -11 -3
-20 -2 -20 1 0 12 12 52 15 52 2 0 26 -16 55 -35z m747 -147 c20 -16 16 -71
-7 -96 -53 -56 -196 -33 -221 36 -7 17 -3 25 16 38 22 14 27 14 60 -2 20 -9
39 -23 42 -31 11 -28 25 -12 19 21 -12 61 37 79 91 34z m211 -305 c20 -54 20
-58 4 -76 -18 -21 -92 -71 -97 -65 -1 2 -5 44 -7 95 -5 88 -4 92 16 96 58 12
62 9 84 -50z m-418 -25 c0 -29 3 -83 6 -119 7 -66 6 -66 -20 -71 -14 -3 -36
-3 -49 -1 -22 4 -23 8 -22 118 0 114 0 114 25 118 61 10 60 11 60 -45z m747 9
c-17 -11 -141 -136 -305 -307 -121 -126 -80 -62 64 101 174 198 197 219 231
218 25 0 26 -1 10 -12z m-278 -81 c9 -10 -1 -21 -46 -52 -77 -52 -103 -65
-114 -58 -16 10 -10 21 19 33 15 6 48 29 72 51 51 44 53 45 69 26z m-491 -138
c31 1 42 -2 39 -11 -2 -8 -27 -12 -70 -12 -51 0 -70 4 -84 18 -17 18 -17 19
27 11 25 -4 64 -7 88 -6z m165 -101 c26 -11 22 -12 -45 -14 -86 -1 -168 -29
-233 -78 -35 -27 -45 -31 -49 -18 -10 25 -7 33 14 33 11 0 52 16 90 35 104 52
170 65 223 42z m-119 -373 c33 -33 14 -58 -77 -99 -47 -22 -57 -31 -57 -51 0
-22 3 -24 23 -18 12 5 38 8 57 9 32 0 35 -2 35 -30 0 -27 -7 -33 -60 -61 -92
-47 -87 -87 7 -59 47 14 53 14 70 -2 34 -31 19 -55 -63 -96 -81 -41 -109 -42
-147 -7 -35 33 -38 263 -4 350 14 37 31 48 98 64 78 19 100 19 118 0z m1800 0
c33 -33 14 -58 -77 -99 -47 -22 -57 -31 -57 -51 0 -22 3 -24 23 -18 12 5 38 8
57 9 32 0 35 -2 35 -30 0 -27 -7 -33 -60 -61 -92 -47 -87 -87 7 -59 47 14 53
14 70 -2 34 -31 19 -55 -63 -96 -81 -41 -109 -42 -147 -7 -35 33 -38 263 -4
350 14 37 31 48 98 64 78 19 100 19 118 0z m-2766 -21 c44 -28 66 -97 67 -203
0 -79 -4 -103 -23 -142 -57 -115 -183 -115 -235 0 -33 73 -30 200 6 274 45 92
113 118 185 71z m206 5 c8 -13 25 -63 37 -113 21 -86 39 -129 39 -92 0 29 60
176 83 203 34 39 57 24 57 -36 0 -50 -64 -259 -101 -331 -21 -42 -52 -57 -75
-38 -58 48 -136 349 -105 407 15 28 47 28 65 0z m1262 3 c15 -17 20 -18 50 -5
39 16 127 18 155 4 27 -15 24 -35 -10 -62 -28 -22 -29 -26 -34 -143 -6 -118
-6 -121 16 -130 36 -16 34 -51 -4 -71 -48 -25 -151 -31 -168 -10 -11 13 -11
20 3 41 9 14 23 25 30 25 16 0 24 50 28 180 l3 85 -28 3 c-16 2 -31 10 -33 17
-5 11 -14 10 -49 -7 -52 -26 -55 -35 -55 -202 0 -94 -4 -127 -16 -144 -19 -28
-39 -28 -58 0 -13 18 -16 53 -16 170 l0 148 -33 0 c-44 0 -71 20 -63 47 18 56
244 99 282 54z m406 -9 c13 -15 39 -73 58 -128 l35 -99 6 105 c6 112 12 135
36 144 57 22 90 -135 62 -304 -13 -83 -36 -124 -72 -128 -36 -4 -68 31 -103
116 -38 93 -44 96 -44 20 0 -100 -23 -148 -64 -132 -27 10 -41 67 -40 164 0
108 16 191 44 238 24 40 51 41 82 4z m517 0 c46 -34 66 -80 66 -152 -1 -128
-99 -240 -224 -257 -61 -8 -66 5 -66 193 0 150 2 165 21 191 39 52 149 66 203
25z m689 12 c32 -22 52 -67 52 -114 0 -45 -11 -72 -43 -108 l-21 -22 22 -46
c31 -63 39 -126 19 -143 -35 -28 -71 9 -106 110 -16 45 -46 24 -56 -38 -9 -64
-22 -85 -48 -81 -39 6 -47 41 -47 224 0 156 2 172 19 188 47 43 167 60 209 30z
m-3623 -59 c17 -33 34 -71 38 -85 6 -22 11 -16 47 57 32 65 46 84 67 89 36 9
68 -28 82 -96 15 -71 14 -288 -2 -320 -30 -60 -58 -11 -80 144 l-13 91 -18
-78 c-20 -91 -39 -138 -59 -156 -23 -19 -51 26 -76 121 -29 111 -29 110 -30
52 -2 -104 -31 -194 -62 -194 -31 0 -52 143 -38 254 10 81 39 163 62 178 28
19 52 2 82 -57z m1199 59 c25 -10 20 -53 -8 -65 -22 -10 -24 -18 -30 -113 -4
-55 -9 -113 -12 -128 -5 -23 -2 -28 15 -28 11 0 25 -9 31 -20 24 -45 -64 -87
-160 -78 -27 2 -36 8 -38 25 -3 20 4 30 40 56 15 10 19 35 24 140 l7 127 -25
0 c-56 0 -59 52 -4 76 32 14 132 19 160 8z m-208 -599 c3 -14 8 -25 11 -25 3
0 14 11 25 25 11 14 26 25 35 25 10 0 6 -11 -15 -38 -17 -21 -34 -50 -37 -65
-10 -38 -36 -36 -29 2 4 17 0 41 -10 59 -20 38 -20 42 -1 42 8 0 17 -11 21
-25z m238 -12 c4 -21 9 -50 12 -65 4 -21 2 -28 -10 -28 -9 0 -16 7 -16 15 0
20 -39 19 -62 -2 -32 -29 -31 -6 3 56 40 72 64 80 73 24z m200 -26 c9 -62 2
-83 -18 -54 -17 22 -52 22 -64 1 -5 -9 -14 -15 -20 -13 -7 2 3 29 24 67 46 81
65 80 78 -1z m190 26 c4 -21 9 -50 12 -65 4 -21 2 -28 -10 -28 -9 0 -16 7 -16
15 0 20 -39 19 -62 -2 -32 -29 -31 -6 3 56 40 72 64 80 73 24z m195 28 c7 -5
10 -14 6 -21 -5 -8 -10 -9 -18 -1 -14 14 -47 14 -47 0 0 -5 13 -15 30 -20 33
-12 48 -43 30 -64 -17 -20 -89 -20 -97 0 -8 23 2 28 25 14 19 -12 52 -7 52 8
0 5 -13 14 -30 20 -35 13 -47 37 -30 58 14 16 57 20 79 6z m190 -5 c15 -18 -5
-34 -22 -17 -15 15 -37 14 -37 -2 0 -7 14 -18 30 -24 32 -12 40 -39 18 -61
-24 -24 -98 -9 -98 20 0 4 7 8 15 8 8 0 15 -4 15 -10 0 -5 11 -10 25 -10 35 0
32 26 -5 39 -22 7 -30 16 -30 35 0 13 6 27 13 29 25 11 65 7 76 -7z m180 5 c7
-5 10 -14 6 -21 -5 -8 -10 -9 -18 -1 -14 14 -47 14 -47 0 0 -5 13 -15 30 -20
33 -12 48 -43 30 -64 -17 -20 -89 -20 -97 0 -8 23 2 28 25 14 19 -12 52 -7 52
8 0 5 -13 14 -30 20 -35 13 -47 37 -30 58 14 16 57 20 79 6z m190 -5 c15 -18
-5 -34 -22 -17 -15 15 -37 14 -37 -2 0 -7 14 -18 30 -24 32 -12 40 -39 18 -61
-24 -24 -98 -9 -98 20 0 4 7 8 15 8 8 0 15 -4 15 -10 0 -5 11 -10 25 -10 35 0
32 26 -5 39 -22 7 -30 16 -30 35 0 13 6 27 13 29 25 11 65 7 76 -7z m180 5 c7
-5 10 -14 6 -21 -5 -8 -10 -9 -18 -1 -14 14 -47 14 -47 0 0 -5 13 -15 30 -20
33 -12 48 -43 30 -64 -17 -20 -89 -20 -97 0 -8 23 2 28 25 14 19 -12 52 -7 52
8 0 5 -13 14 -30 20 -35 13 -47 37 -30 58 14 16 57 20 79 6z"/>
<path d="M2343 4140 c-13 -5 -31 -23 -41 -39 -16 -26 -19 -28 -37 -15 -31 23
-73 17 -106 -15 -16 -16 -29 -38 -29 -48 1 -17 2 -17 15 2 54 76 107 73 153
-10 10 -17 11 -14 12 21 0 46 30 94 59 94 29 0 61 -30 61 -57 0 -25 1 -25 18
-10 34 31 82 15 82 -26 0 -10 -13 -30 -30 -43 -16 -14 -35 -43 -41 -64 -10
-33 -9 -43 5 -65 24 -37 37 -31 20 10 -25 61 15 125 80 125 28 0 86 -44 86
-66 0 -8 5 -14 10 -14 6 0 10 4 10 8 0 13 48 32 81 32 73 0 108 -104 53 -155
l-27 -25 47 14 c44 14 49 13 67 -5 30 -30 21 -85 -20 -116 -15 -11 -15 -12 0
-13 9 0 23 8 32 18 41 45 28 123 -24 141 -26 9 -29 15 -29 51 0 34 -6 48 -34
76 -38 38 -81 44 -125 20 -23 -13 -27 -12 -43 10 -18 22 -83 48 -98 39 -3 -2
-4 9 -2 25 5 35 -34 65 -74 57 -20 -3 -33 2 -48 18 -26 28 -54 37 -83 25z"/>
<path d="M2076 3598 c-20 -28 -21 -74 -3 -81 10 -4 13 2 9 18 -6 33 15 65 42
65 31 0 44 -17 48 -65 l4 -40 8 32 c10 39 30 58 52 49 11 -4 15 -15 12 -35 -3
-20 0 -27 8 -24 21 8 25 35 8 61 -13 20 -22 23 -49 19 -23 -4 -38 -1 -46 9
-19 23 -75 18 -93 -8z"/>
<path d="M2292 3330 c-24 -22 -28 -45 -12 -55 6 -4 33 1 61 10 49 17 93 16
159 -1 l25 -7 -20 23 c-45 52 -170 69 -213 30z"/>
<path d="M2341 3217 c-65 -33 -88 -125 -52 -200 38 -79 110 -106 171 -65 45
30 60 61 60 123 0 107 -97 184 -179 142z m103 -22 c38 -29 56 -68 56 -123 0
-46 -4 -58 -29 -83 -55 -55 -134 -28 -167 56 -14 38 -15 52 -5 85 20 69 96
102 145 65z"/>
<path d="M2379 3156 c19 -23 0 -52 -31 -47 -13 2 -9 -23 8 -47 30 -43 78 -18
76 39 -1 34 -26 69 -50 69 -11 0 -12 -3 -3 -14z"/>
<path d="M2720 2968 c0 -33 14 -67 24 -58 8 9 -6 90 -15 90 -5 0 -9 -15 -9
-32z"/>
<path d="M2505 2437 c-35 -49 -103 -86 -160 -87 -30 0 -36 -3 -25 -10 58 -37
196 35 215 113 9 36 6 34 -30 -16z"/>
<path d="M2012 3081 c9 -15 9 -23 -1 -35 -8 -9 -20 -16 -27 -16 -28 0 -6 -50
28 -62 9 -4 24 -1 34 7 36 26 10 125 -33 125 -10 0 -11 -4 -1 -19z"/>
<path d="M1196 1368 c-33 -47 -14 -198 25 -198 32 0 51 141 26 189 -17 33 -32
36 -51 9z"/>
<path d="M3557 1393 c-10 -10 -8 -193 2 -193 18 0 59 41 75 74 22 46 20 82 -4
106 -19 19 -60 27 -73 13z"/>
<path d="M4253 1403 c-18 -7 -17 -93 0 -93 13 0 46 32 61 57 17 30 -21 53 -61
36z"/>
<path d="M1932 875 c-10 -21 -9 -25 3 -25 9 0 15 10 15 25 0 14 -2 25 -3 25
-2 0 -9 -11 -15 -25z"/>
<path d="M2126 874 c-9 -22 -8 -24 9 -24 8 0 15 6 15 14 0 22 -17 28 -24 10z"/>
<path d="M2322 875 c-10 -21 -9 -25 3 -25 9 0 15 10 15 25 0 14 -2 25 -3 25
-2 0 -9 -11 -15 -25z"/>
</g>
</svg>
